<svg width="21" height="22" viewBox="0 0 21 22" fill="none" xmlns="http://www.w3.org/2000/svg">
<ellipse cx="9.99845" cy="11.0004" rx="9.60001" ry="9.6" fill="#EDEDED" fill-opacity="0.2"/>
<path d="M9.82427 1.40039C15.2223 1.40039 19.5983 5.69846 19.5983 11.0004C19.5983 16.3023 15.2223 20.6004 9.82427 20.6004C7.23948 20.6004 4.94685 19.4097 3.19897 17.8004" stroke="#D8D8D8" stroke-width="1.2" stroke-linecap="round"/>
<path opacity="0.9" d="M7.52142 12.2004H6.64102V9.19958L5.95282 9.90018L5.45062 9.37318L6.75262 8.06498H7.52142V12.2004ZM9.92784 12.2748C8.66924 12.2748 8.14224 11.3076 8.14224 10.142C8.14224 8.88958 8.84904 8.00298 10.0704 8.00298C10.5726 8.00298 10.9942 8.17658 11.2918 8.43078L10.895 9.10658C10.6718 8.89578 10.4362 8.78418 10.0704 8.78418C9.46284 8.78418 9.03504 9.29878 9.03504 9.95598C9.03504 9.98698 9.03504 10.0118 9.04124 10.0428C9.23344 9.76378 9.64884 9.50958 10.1014 9.50958C10.8454 9.50958 11.5088 9.97458 11.5088 10.855C11.5088 11.661 10.8702 12.2748 9.92784 12.2748ZM9.87824 11.4936C10.3556 11.4936 10.616 11.1774 10.616 10.886C10.616 10.452 10.244 10.266 9.84724 10.266C9.53724 10.266 9.23964 10.4086 9.04124 10.6566C9.07844 11.0534 9.30164 11.4936 9.87824 11.4936ZM14.9089 12.2004H14.1215V10.3776C14.1215 9.96218 13.9045 9.83198 13.5635 9.83198C13.2597 9.83198 13.0179 10.0056 12.8815 10.1854V12.2004H12.0941V8.06498H12.8815V9.59638C13.0737 9.36698 13.4457 9.13138 13.9355 9.13138C14.5927 9.13138 14.9089 9.49098 14.9089 10.0738V12.2004Z" fill="#D8D8D8"/>
</svg>
