<svg width="28" height="25" viewBox="0 0 28 25" fill="none" xmlns="http://www.w3.org/2000/svg">
<g clip-path="url(#clip0_2001_2153)">
<rect x="9.36454" y="3.29122" width="11.9524" height="16.9511" rx="1.75" transform="rotate(10.4572 9.36454 3.29122)" fill="#0F1115" stroke="#5F5F60" stroke-width="0.5"/>
<path d="M13.1745 15.6812C13.0675 15.6942 12.9084 15.6515 12.8222 15.5868C11.9767 14.6616 10.6476 12.4436 11.1404 10.6044C11.4083 9.60456 12.1337 9.15095 13.006 9.38469C13.5231 9.52326 14.0687 10.3698 14.2378 10.8868C14.6427 10.5236 15.4287 10.0339 16.0568 10.2022C16.9291 10.4359 17.3305 11.1914 17.0626 12.1912C16.4876 14.337 14.0132 15.3167 13.1745 15.6812Z" fill="url(#paint0_linear_2001_2153)"/>
<rect x="0.781654" y="8.78413" width="11.9524" height="16.9511" rx="1.75" transform="rotate(-14.6472 0.781654 8.78413)" fill="#0F1115" stroke="#5F5F60" stroke-width="0.5"/>
<path d="M9.56319 18.334C9.48009 18.3964 9.3267 18.4375 9.22354 18.425C8.07179 18.06 5.89315 16.8491 5.41808 15.0761C5.15982 14.1123 5.54673 13.384 6.38763 13.1586C6.88615 13.0251 7.74966 13.4688 8.13998 13.8189C8.30296 13.3206 8.72309 12.5329 9.32857 12.3706C10.1695 12.1453 10.8687 12.5826 11.127 13.5464C11.6812 15.6149 10.0876 17.6255 9.56319 18.334Z" fill="url(#paint1_linear_2001_2153)"/>
</g>
<rect x="12.7" y="0.858203" width="14.6" height="11.6" rx="5.8" fill="#B5B3FF"/>
<rect x="12.7" y="0.858203" width="14.6" height="11.6" rx="5.8" stroke="#111315" stroke-width="1.4"/>
<path d="M18.8056 9.1582H17.8116V5.7702L17.0346 6.5612L16.4676 5.9662L17.9376 4.4892H18.8056V9.1582ZM21.4386 9.2422C20.1016 9.2422 19.5066 8.0312 19.5066 6.8272C19.5066 5.6232 20.1016 4.4192 21.4386 4.4192C22.7686 4.4192 23.3706 5.6232 23.3706 6.8272C23.3706 8.0312 22.7686 9.2422 21.4386 9.2422ZM21.4386 8.3602C22.1036 8.3602 22.3556 7.6882 22.3556 6.8272C22.3556 5.9662 22.1036 5.3012 21.4386 5.3012C20.7666 5.3012 20.5146 5.9662 20.5146 6.8272C20.5146 7.6882 20.7666 8.3602 21.4386 8.3602Z" fill="black"/>
<defs>
<linearGradient id="paint0_linear_2001_2153" x1="14.0864" y1="11.4542" x2="12.9608" y2="15.6552" gradientUnits="userSpaceOnUse">
<stop offset="0.00170068" stop-color="#5F5F60"/>
<stop offset="1" stop-color="#2B2B2D"/>
</linearGradient>
<linearGradient id="paint1_linear_2001_2153" x1="8.28709" y1="14.3656" x2="9.37218" y2="18.4153" gradientUnits="userSpaceOnUse">
<stop offset="0.00170068" stop-color="#5F5F60"/>
<stop offset="1" stop-color="#2B2B2D"/>
</linearGradient>
<clipPath id="clip0_2001_2153">
<rect width="21.9983" height="22" fill="white" transform="translate(0 3)"/>
</clipPath>
</defs>
</svg>
