<svg width="27" height="26" viewBox="0 0 27 26" fill="none" xmlns="http://www.w3.org/2000/svg">
<path d="M25.742 19.9262C26.6667 17.5 25.6667 14.5 24.1667 13.5L15.1667 17.5L14.6667 23C17.6667 26 21.159 24.6634 22.869 23.5165C22.9441 23.4668 23.0346 23.4465 23.1235 23.4593C23.2123 23.4722 23.2935 23.5173 23.3519 23.5863C24.0414 24.1534 24.8819 24.5006 25.7666 24.5836C26.4861 24.6684 26.5748 24.2196 25.9637 23.8007C25.6553 23.583 25.3976 23.2997 25.2086 22.9707C25.0197 22.6417 24.904 22.2748 24.8697 21.8959C24.861 21.783 24.8906 21.6704 24.9535 21.5768C25.2979 21.0705 25.5638 20.5139 25.742 19.9262Z" fill="#B5B2FF" stroke="#5F5F60" stroke-width="0.5" stroke-miterlimit="10"/>
<path d="M24.0051 8.4334C22.2825 2.69581 15.8227 -0.35456 9.66592 1.58218C3.50918 3.51892 -0.0476899 9.72456 1.6829 15.446C1.97118 16.397 2.40149 17.2978 2.95891 18.1171C3.06075 18.2687 3.10857 18.4508 3.09448 18.6336C3.03902 19.2469 2.85184 19.8405 2.54603 20.3729C2.24023 20.9054 1.82317 21.3638 1.32402 21.7162C0.335113 22.3941 0.478663 23.1204 1.64302 22.9832C3.07487 22.8488 4.43499 22.2871 5.5508 21.3692C5.64529 21.2576 5.77672 21.1845 5.92054 21.1637C6.06436 21.1429 6.21074 21.1758 6.33235 21.2562C9.0997 23.1123 12.4093 23.4189 16.0619 22.265C22.1868 20.3605 25.7596 14.1549 24.0051 8.4334Z" fill="#B5B2FF" stroke="#5F5F60" stroke-width="0.5" stroke-miterlimit="10"/>
</svg>
