<svg width="21" height="24" viewBox="0 0 21 24" fill="none" xmlns="http://www.w3.org/2000/svg">
<path d="M4.5105 9.72802C3.70764 13.4017 5.42284 15.1919 6.96368 15.5974C7.99766 15.6582 8.33207 14.9768 8.33207 14.0464C8.33207 13.8944 8.31475 13.4858 8.3929 13.2253C8.57536 12.6171 8.84906 12.4042 9.12288 12.2217L9.33564 12.7083L9.63976 13.3165C9.83363 13.6249 10.2558 13.6451 10.5218 13.4382C11.0692 13.0124 10.6841 12.313 10.8058 11.0357C12.8129 13.7423 11.8903 14.9283 11.9815 15.4757C15.6613 15.1108 16.2814 12.9212 16.3406 11.279C16.425 8.93733 14.6273 6.6869 13.0763 5.71374C13.1372 6.16991 13.198 7.17348 13.0763 8.14664C12.9292 9.32351 11.7991 9.81925 11.0084 9.45432C9.57905 8.69404 10.4002 6.38278 10.5218 4.83181C10.8563 2.39892 9.76152 1.15206 9.427 1C9.30535 1.88193 9.04193 2.42933 8.4033 3.58495C6.88273 5.74415 5.41271 6.56525 4.5105 9.72802Z" stroke="#5F5F60" stroke-width="0.5"/>
<path d="M1.64093 21.5579L3.19191 21.6491L0.819831 22.0749C0.880654 22.2371 1.03879 22.6223 1.18477 22.8656C1.33074 23.1089 2.38094 22.967 2.88779 22.8656C8.31113 21.3552 19.3038 18.2978 19.8877 18.1519C20.4716 18.0059 20.4959 17.5031 20.4351 17.2699L20.1614 15.9927L16.6641 16.5097C17.475 16.2461 19.17 15.6825 19.4619 15.5365C19.7539 15.3905 19.7457 15.1107 19.7052 14.9891C19.7052 14.9283 19.6565 14.7458 19.4619 14.5025C19.2673 14.2592 18.6915 14.4011 18.4279 14.5025L0.333252 19.8853C0.363663 20.1488 0.479226 20.755 0.698187 21.0713C0.917147 21.3876 1.41792 21.5275 1.64093 21.5579Z" stroke="#5F5F60" stroke-width="0.5"/>
<path d="M17.3322 19.2467L11.3108 20.7673C13.4092 21.3552 17.7154 22.5676 18.1533 22.7136C18.7007 22.8961 19.5522 22.9265 19.6739 22.7136C19.7955 22.5007 20.2517 21.193 20.495 20.4632C20.6896 19.8793 20.495 19.6117 20.3733 19.5508C20.0591 19.4089 19.315 19.1129 18.8528 19.0643C18.3905 19.0156 17.6465 19.1656 17.3322 19.2467Z" stroke="#5F5F60" stroke-width="0.5"/>
<path d="M2.12728 18.3953L0.667474 17.8479C0.271811 17.7871 0.353232 17.483 0.424252 17.2397C0.596582 16.6517 0.971654 15.3603 1.0933 14.898C1.21494 14.4358 2.15769 14.6446 2.61386 14.8068L9.63885 16.7227C7.99664 17.1079 4.5176 17.9574 3.73907 18.2737C2.96055 18.59 2.34016 18.4866 2.12728 18.3953Z" stroke="#5F5F60" stroke-width="0.5"/>
<path d="M13.3186 3.03736C13.3186 3.47529 13.4808 3.64559 13.5619 3.676C13.7079 3.74899 13.9268 3.676 14.0485 3.37189C14.681 2.00947 13.9268 1.38502 13.4707 1.2431C13.5011 1.36475 13.5619 1.66886 13.5619 1.91215C13.5619 2.21626 13.3186 2.48996 13.3186 3.03736Z" stroke="#5F5F60"/>
</svg>
